<?xml version="1.0" standalone="no"?>
<!DOCTYPE svg PUBLIC "-//W3C//DTD SVG 20010904//EN"
 "http://www.w3.org/TR/2001/REC-SVG-20010904/DTD/svg10.dtd">
<svg version="1.0" xmlns="http://www.w3.org/2000/svg"
 width="284.000000pt" height="274.000000pt" viewBox="0 0 284.000000 274.000000"
 preserveAspectRatio="xMidYMid meet">

<g transform="translate(0.000000,274.000000) scale(0.100000,-0.100000)"
fill="#000000" stroke="none">
<path d="M73 2683 c4 -32 9 -108 13 -169 3 -62 10 -117 14 -124 8 -13 50 -14
328 -9 88 1 114 5 121 17 6 11 10 6 14 -19 8 -45 33 -339 52 -619 27 -380 26
-375 55 -374 72 4 67 -1 62 63 -3 48 -1 59 13 64 9 4 23 0 31 -8 14 -13 35
-19 56 -16 4 0 13 -9 19 -21 19 -36 69 -86 125 -124 55 -38 65 -48 40 -38 -8
3 -16 -3 -19 -16 -4 -17 -3 -19 9 -9 12 9 11 5 -1 -25 -24 -58 -55 -104 -55
-83 0 11 -6 17 -13 14 -6 -2 -12 -12 -12 -23 0 -10 -8 -20 -18 -22 -15 -3 -16
0 -6 25 5 15 16 31 22 36 8 6 7 7 -3 3 -8 -3 -23 -9 -32 -12 -10 -4 -18 -14
-18 -24 0 -55 -44 -71 -55 -20 -4 17 -13 30 -22 30 -15 0 -14 -18 2 -62 3 -8
-13 -20 -49 -34 l-54 -21 -4 46 c-3 25 0 52 5 59 15 19 0 26 -18 8 -13 -13
-15 -27 -10 -69 l7 -52 -37 -18 c-21 -10 -39 -16 -41 -14 -3 2 -7 34 -11 71
-3 36 -10 66 -15 66 -4 0 -6 -10 -3 -22 2 -13 6 -48 7 -78 3 -46 0 -55 -16
-58 -11 -2 -16 0 -12 7 4 7 -1 11 -13 11 -14 0 -19 -5 -15 -15 4 -9 -13 -33
-44 -63 -81 -79 -100 -171 -137 -662 -9 -113 -19 -222 -22 -242 l-5 -38 1266
0 1266 0 0 1200 c0 1134 -1 1201 -18 1198 -13 -2 -18 5 -20 30 -3 27 0 32 17
32 12 0 21 6 21 13 0 22 -16 38 -33 31 -22 -8 -23 28 -1 50 8 9 12 20 9 26 -3
5 1 10 9 10 13 0 16 14 16 75 l0 75 -230 0 c-222 0 -230 -1 -240 -21 -7 -11
-14 -18 -17 -15 -3 3 0 12 7 21 11 13 -3 15 -125 15 -118 0 -141 -3 -163 -19
-15 -10 -38 -22 -52 -26 l-25 -7 22 16 c12 9 32 20 45 25 15 7 -53 10 -203 10
-186 1 -231 -2 -257 -15 -36 -18 -42 -35 -11 -29 12 3 29 0 38 -5 13 -8 13 -9
-6 -10 -12 0 -24 -4 -28 -10 -4 -7 -105 -11 -105 -3 0 1 7 9 16 17 8 9 11 16
5 16 -6 0 -11 5 -11 10 0 6 10 8 24 4 14 -3 30 -3 36 1 30 18 -29 25 -226 25
l-210 0 -33 -34 c-33 -34 -71 -53 -71 -35 0 5 18 21 40 35 22 15 40 28 40 30
0 2 -232 4 -516 4 l-517 0 6 -57z m2525 21 c2 -1 -3 -13 -11 -26 -8 -12 -18
-39 -22 -58 -4 -19 -17 -43 -28 -52 -20 -16 -20 -18 -3 -18 12 0 16 -5 12 -16
-3 -9 -2 -12 5 -9 6 4 8 13 5 21 -3 7 0 16 6 20 6 4 8 3 4 -4 -3 -6 -2 -13 4
-17 5 -3 10 0 10 8 0 17 43 41 62 34 8 -3 3 -9 -15 -16 -27 -10 -61 -67 -51
-83 3 -5 2 -8 -3 -8 -4 0 -17 -7 -27 -15 -16 -12 -17 -17 -6 -30 7 -8 16 -13
20 -10 4 2 2 -14 -4 -36 -7 -26 -15 -38 -23 -34 -22 8 -55 -55 -48 -92 6 -33
-10 -58 -49 -80 -9 -5 -18 -19 -21 -31 -7 -40 -15 -42 -51 -14 -38 30 -42 50
-16 94 13 23 14 32 5 35 -31 11 0 83 35 83 10 0 12 7 8 23 -7 28 17 65 50 77
13 5 24 16 24 24 0 7 14 19 30 26 37 15 40 33 4 20 -22 -9 -25 -8 -20 6 3 8 6
32 6 51 0 33 2 35 25 29 20 -5 25 -3 25 12 0 10 -5 23 -12 30 -9 9 -9 15 0 24
7 7 12 20 12 30 0 15 5 17 28 12 15 -4 28 -8 30 -10z m-135 -29 c-3 -9 -8 -14
-10 -11 -3 3 -2 9 2 15 9 16 15 13 8 -4z m-1473 -50 c-13 -14 -28 -25 -33 -25
-6 0 0 11 13 25 13 14 28 25 33 25 6 0 0 -11 -13 -25z m574 -40 l-7 -55 34 -1
c34 -2 34 -2 4 -6 -16 -2 -35 -10 -40 -18 -9 -10 -15 -9 -34 7 -32 25 -31 82
0 109 40 34 50 25 43 -36z m86 28 c0 -20 -39 -63 -57 -63 -18 0 -17 27 2 34 8
3 15 11 15 19 0 17 21 38 32 31 4 -3 8 -12 8 -21z m661 7 c-25 -21 -46 -27
-36 -9 6 9 41 27 55 28 3 0 -6 -9 -19 -19z m-1072 -37 c2 -2 -3 -3 -12 -3 -9
0 -22 10 -28 23 l-12 22 24 -20 c13 -11 26 -21 28 -22z m825 20 c-13 -40 -28
-63 -41 -63 -11 0 -9 7 6 26 12 15 21 33 21 40 0 8 4 14 10 14 5 0 7 -8 4 -17z
m346 -3 c-6 -11 -13 -20 -16 -20 -2 0 0 9 6 20 6 11 13 20 16 20 2 0 0 -9 -6
-20z m-1366 -8 c3 -5 -1 -9 -9 -9 -8 0 -15 4 -15 9 0 4 4 8 9 8 6 0 12 -4 15
-8z m1242 -18 c-3 -9 -6 -20 -6 -25 0 -5 -6 -4 -14 3 -10 9 -11 17 -4 26 15
17 31 15 24 -4z m-1277 3 c-2 -1 -13 -9 -24 -17 -19 -14 -19 -14 -6 3 7 9 18
17 24 17 6 0 8 -1 6 -3z m351 -12 c-7 -8 -17 -15 -23 -15 -6 0 -2 7 9 15 25
19 30 19 14 0z m870 11 c0 -2 -9 -6 -20 -9 -11 -3 -18 -1 -14 4 5 9 34 13 34
5z m-933 -12 c-3 -3 -12 -4 -19 -1 -8 3 -5 6 6 6 11 1 17 -2 13 -5z m869 -15
c-15 -9 -16 -13 -5 -21 10 -7 9 -8 -6 -4 -11 3 -27 1 -35 -4 -11 -7 0 -10 38
-10 31 0 52 4 52 11 0 6 -7 9 -15 5 -8 -3 -15 -1 -15 4 0 5 11 9 25 8 19 -2
25 -8 25 -25 0 -21 -10 -28 -33 -24 -5 1 -6 -3 -2 -9 3 -6 11 -8 16 -5 5 4 6
-8 3 -27 l-6 -33 21 25 c14 16 19 19 15 8 -3 -10 -1 -18 5 -18 6 0 11 -8 10
-17 0 -16 -1 -16 -11 -2 -9 13 -14 12 -42 -13 -32 -29 -52 -37 -40 -15 4 6 4
9 0 5 -4 -3 -8 -10 -8 -15 0 -4 -13 -22 -28 -39 -35 -41 -49 -147 -26 -210 15
-42 12 -57 -14 -67 -10 -4 -8 -6 7 -6 17 -1 22 -6 20 -23 -1 -15 3 -22 12 -20
12 3 12 0 1 -13 -16 -20 -6 -148 15 -178 12 -17 12 -24 1 -46 -25 -49 -38
-128 -31 -186 8 -63 1 -75 -47 -75 -18 0 -33 -9 -44 -25 -16 -25 -40 -25 -30
1 4 11 -5 14 -39 14 -34 0 -43 3 -39 14 6 17 -12 56 -26 56 -5 0 -7 -6 -4 -14
4 -10 -1 -15 -13 -15 -10 -1 -71 -4 -135 -7 -85 -5 -118 -3 -118 5 0 10 34 15
94 14 15 0 17 6 12 36 -3 20 -6 54 -7 76 l-1 40 -15 -37 c-18 -42 -58 -64
-104 -54 -27 5 -31 2 -40 -23 -10 -27 -113 -111 -137 -111 -5 0 -38 -13 -73
-29 -83 -37 -122 -43 -189 -30 -30 6 -73 12 -95 13 -93 4 -115 28 -75 79 27
34 25 53 -7 81 l-27 23 26 26 c32 32 105 45 165 28 46 -12 100 -15 90 -5 -3 3
-43 14 -89 24 -58 12 -89 15 -101 8 -22 -11 -71 -2 -62 12 3 6 20 10 36 10 17
0 32 6 35 15 4 8 15 15 25 15 36 0 117 49 82 50 -5 0 -48 9 -98 19 -89 18 -90
18 -119 -2 -26 -18 -28 -24 -22 -64 6 -49 -8 -88 -30 -79 -7 3 -17 -2 -22 -11
-7 -12 -10 -9 -15 14 -4 21 -14 32 -41 41 -39 14 -41 19 -26 74 9 30 17 39 48
49 20 7 39 11 41 10 2 -2 7 2 10 7 3 5 31 24 62 41 38 21 61 42 69 61 16 38
48 40 80 5 13 -14 29 -25 36 -25 6 0 25 -7 40 -15 33 -17 80 -20 89 -5 3 6 0
10 -7 11 -16 1 33 15 86 24 52 9 35 22 -47 35 -38 6 -78 16 -90 23 -12 7 -23
12 -25 13 -1 1 0 8 3 16 4 9 26 21 51 28 24 7 44 19 44 26 0 23 -141 19 -200
-7 -39 -17 -54 -19 -85 -10 -20 5 -42 8 -48 6 -7 -3 -33 -6 -59 -8 l-48 -3 23
24 c29 32 127 100 202 142 79 44 148 61 208 54 56 -8 70 -24 86 -101 15 -71
48 -139 80 -164 72 -55 91 -74 97 -102 3 -16 13 -46 21 -65 l15 -35 12 24 c6
13 21 25 33 27 12 2 25 12 28 22 8 26 43 35 63 16 17 -15 54 -14 112 1 20 6
15 8 -27 13 l-51 5 14 40 c25 72 9 245 -28 305 -10 16 -10 22 1 32 11 10 12
10 7 1 -5 -8 -1 -13 9 -13 11 0 15 -5 12 -14 -5 -12 5 -16 41 -18 l47 -3 -45
-22 -45 -22 63 -1 c56 0 62 2 62 20 0 22 34 41 60 33 9 -3 6 3 -6 14 l-22 19
47 14 46 13 -37 9 c-47 12 -50 26 -5 21 17 -2 26 0 20 3 -7 3 -13 10 -13 15 0
5 10 4 23 -2 19 -11 20 -10 9 3 -10 13 -8 15 15 10 22 -3 25 -2 17 8 -6 6 -30
14 -53 17 l-42 6 42 19 c23 10 39 21 36 24 -3 3 -16 -1 -29 -10 -12 -9 -34
-16 -48 -16 -23 1 -23 2 -8 14 10 7 22 24 27 38 8 22 15 25 66 27 34 1 72 9
94 21 39 21 81 28 47 9z m454 -9 c0 -5 -2 -10 -4 -10 -3 0 -8 5 -11 10 -3 6
-1 10 4 10 6 0 11 -4 11 -10z m-1175 -10 c3 -5 1 -10 -4 -10 -6 0 -11 5 -11
10 0 6 2 10 4 10 3 0 8 -4 11 -10z m279 -5 c-10 -8 -22 -15 -27 -15 -4 0 -28
-13 -53 -29 l-46 -28 32 -7 c18 -3 51 -7 74 -7 38 -1 39 -2 11 -8 -16 -4 -49
-6 -72 -3 -26 2 -43 -1 -43 -7 0 -6 -7 -11 -15 -11 -8 0 -15 5 -15 10 0 6 -7
10 -15 10 -21 0 -19 19 3 27 9 4 20 11 24 17 3 5 15 11 26 13 11 1 42 14 68
28 52 28 79 33 48 10z m996 0 c10 -12 10 -15 -4 -15 -9 0 -16 7 -16 15 0 8 2
15 4 15 2 0 9 -7 16 -15z m-1063 -1 c-3 -3 -12 -4 -19 -1 -8 3 -5 6 6 6 11 1
17 -2 13 -5z m232 -56 c0 -27 -2 -29 -8 -13 -5 11 -6 26 -4 33 8 21 13 13 12
-20z m420 -19 c-14 -61 -61 -152 -81 -155 -14 -2 -15 2 -8 22 5 13 6 24 1 24
-4 0 -5 14 -3 31 4 25 8 30 25 25 29 -7 46 10 53 55 4 22 10 39 14 39 4 0 4
-19 -1 -41z m468 -66 c-3 -51 -5 -58 -22 -55 -11 2 -21 5 -22 6 -6 5 30 106
37 106 5 0 8 -26 7 -57z m-1090 -24 c-12 -3 -30 -3 -40 -1 -16 4 -16 5 -1 17
13 9 23 9 40 1 l23 -11 -22 -6z m63 -9 c-14 -11 -31 -20 -38 -20 -7 0 -10 -4
-7 -10 3 -6 -1 -7 -9 -4 -23 9 -20 13 27 34 54 24 58 24 27 0z m27 -36 c-3 -3
-12 -4 -19 -1 -8 3 -5 6 6 6 11 1 17 -2 13 -5z m963 -4 c0 -5 -7 -10 -16 -10
-8 0 -12 5 -9 10 3 6 10 10 16 10 5 0 9 -4 9 -10z m-76 -19 c16 -18 16 -19
-26 -23 -54 -6 -59 -1 -29 23 29 24 34 24 55 0z m63 -18 c-9 -9 -19 -14 -23
-11 -10 10 6 28 24 28 15 0 15 -1 -1 -17z m-98 -64 c-29 -37 -34 -39 -40 -23
-4 11 -8 28 -8 40 -1 17 5 21 40 22 l41 2 -33 -41z m81 32 c0 -12 -29 -41 -41
-41 -12 0 -11 6 3 30 13 20 38 27 38 11z m-28 -63 c-16 -16 -15 -28 3 -28 9 0
15 -9 15 -21 0 -13 5 -19 13 -16 10 4 9 -17 -5 -97 -20 -110 -26 -133 -27 -98
-1 12 -7 22 -15 22 -8 0 -16 7 -20 15 -10 28 -23 15 -34 -36 -16 -68 -15 -114
3 -150 12 -22 15 -50 11 -109 -2 -44 -7 -84 -10 -89 -3 -5 -38 -9 -77 -10
l-71 -1 7 33 c4 17 15 46 25 62 27 45 50 132 51 194 0 31 4 65 8 76 4 11 4 35
-1 53 -7 25 -6 39 6 57 9 14 16 29 16 36 0 6 9 22 20 36 11 14 20 36 20 48 0
29 8 35 44 35 23 0 27 -3 18 -12z m-254 -156 c-7 -14 -12 -36 -10 -51 2 -22
-2 -19 -20 16 -21 42 -21 42 -3 84 l19 42 14 -33 c11 -28 11 -38 0 -58z m389
-134 c6 -199 -1 -251 -11 -93 -9 134 -17 195 -26 190 -11 -7 -24 51 -15 65 12
19 24 10 28 -22 3 -25 4 -20 5 16 1 27 5 47 8 43 3 -3 8 -92 11 -199z m-632
23 c-13 -14 -15 -10 -15 36 0 79 13 98 22 34 7 -44 5 -58 -7 -70z m-1407 64
c-3 -3 -9 2 -12 12 -6 14 -5 15 5 6 7 -7 10 -15 7 -18z m132 10 c15 -8 19 -14
10 -15 -26 0 -60 12 -60 21 0 13 21 10 50 -6z m1331 -235 c2 -42 -3 -85 -9
-97 -7 -12 -12 -44 -12 -72 0 -42 -3 -51 -17 -51 -10 0 -28 -3 -40 -6 -22 -6
-23 -3 -23 42 0 64 35 209 60 249 11 18 20 41 21 51 2 47 19 -48 20 -116z
m529 80 c0 -10 -3 -25 -6 -34 -5 -13 -8 -14 -20 -1 -11 10 -12 20 -4 40 11 28
30 25 30 -5z m-120 10 c0 -5 -5 -10 -11 -10 -5 0 -7 5 -4 10 3 6 8 10 11 10 2
0 4 -4 4 -10z m-350 -191 c-16 -35 -30 -74 -30 -86 0 -14 -6 -23 -15 -23 -23
0 -10 74 20 118 14 20 25 41 25 47 0 6 6 17 13 24 24 25 18 -14 -13 -80z m427
-21 c-2 -13 -4 -5 -4 17 -1 22 1 32 4 23 2 -10 2 -28 0 -40z m55 10 c-7 -7
-12 -8 -12 -2 0 14 12 26 19 19 2 -3 -1 -11 -7 -17z m-1899 -38 c3 -11 1 -20
-4 -20 -5 0 -9 4 -9 9 0 5 -3 17 -7 27 -4 11 -3 15 4 11 6 -4 13 -16 16 -27z
m-126 4 c-3 -3 -12 -4 -19 -1 -8 3 -5 6 6 6 11 1 17 -2 13 -5z m2040 -31 c-3
-10 -5 -4 -5 12 0 17 2 24 5 18 2 -7 2 -21 0 -30z m-1866 -6 c-16 -16 -26 0
-10 19 9 11 15 12 17 4 2 -6 -1 -17 -7 -23z m672 8 c-3 -9 -8 -14 -10 -11 -3
3 -2 9 2 15 9 16 15 13 8 -4z m-58 -259 c-81 -126 -150 -214 -160 -204 -2 2 9
18 26 36 18 19 24 32 17 32 -8 0 -19 -5 -24 -10 -6 -6 -18 -8 -27 -5 -30 12
-8 79 50 152 18 23 33 44 33 48 0 21 78 128 98 136 13 5 27 19 30 32 4 13 8
-10 10 -55 l3 -76 -56 -86z m1182 162 c-3 -8 -6 -5 -6 6 -1 11 2 17 5 13 3 -3
4 -12 1 -19z m-170 -35 c0 -21 -6 -45 -13 -53 -6 -8 -20 -44 -30 -80 -9 -36
-22 -74 -28 -85 -5 -11 -9 -26 -8 -32 3 -15 -7 -16 -27 -4 -12 7 -12 24 -2
102 6 52 13 112 14 134 2 32 6 40 27 46 58 16 68 12 67 -28z m73 25 c0 -7 -12
-50 -27 -97 -24 -75 -28 -101 -27 -211 0 -90 -2 -113 -8 -81 -4 24 -14 51 -23
61 -21 23 -19 73 5 117 13 25 20 57 20 94 0 41 5 63 20 82 11 14 20 30 20 36
0 6 5 11 10 11 6 0 10 -5 10 -12z m-374 -34 c19 -15 34 -22 34 -16 0 5 -10 17
-22 25 l-23 16 22 0 c17 1 24 -9 36 -46 24 -74 30 -113 18 -113 -6 0 -15 10
-22 21 -6 12 -14 18 -18 13 -6 -10 -30 -17 -46 -15 -54 5 -78 16 -83 35 -6 19
-7 18 -13 -9 l-7 -30 -1 27 c0 15 6 45 15 67 12 30 22 41 42 44 15 2 28 5 30
6 2 0 19 -11 38 -25z m-176 -10 c-6 -14 -10 -51 -11 -82 -1 -51 -2 -54 -9 -23
-5 19 -6 41 -3 50 4 12 3 13 -5 3 -5 -8 -19 -11 -35 -8 -15 3 -38 8 -52 11
-14 3 -24 9 -24 13 4 22 -5 31 -38 38 -36 8 -34 9 32 14 39 4 89 7 112 8 42 2
42 2 33 -24z m-270 -8 c0 -7 3 -29 6 -47 5 -24 3 -31 -4 -24 -6 6 -12 21 -14
34 -2 17 -13 28 -38 37 l-35 12 43 1 c29 1 42 -3 42 -13z m890 -73 c-1 -21
-13 -53 -21 -53 -10 0 -12 43 -2 53 9 9 23 9 23 0z m-650 -43 c5 -19 6 -29 1
-24 -10 10 -26 72 -17 63 4 -4 11 -21 16 -39z m731 -46 c-9 -28 -9 -29 -10 -3
-1 14 2 29 6 32 11 12 13 2 4 -29z m-63 -33 c0 -16 -6 -35 -14 -42 -12 -9 -14
-6 -14 23 0 53 26 71 28 19z m0 -144 c1 -45 0 -103 -3 -128 -6 -41 -9 -46 -31
-46 -17 0 -29 8 -39 28 -16 30 -12 50 16 87 9 12 20 42 24 65 16 105 29 103
33 -6z m-1441 -189 c-3 -8 -6 -5 -6 6 -1 11 2 17 5 13 3 -3 4 -12 1 -19z
m1423 -44 c0 -8 -4 -12 -10 -9 -5 3 -10 10 -10 16 0 5 5 9 10 9 6 0 10 -7 10
-16z m-1490 -482 c0 -24 -19 -42 -36 -35 -15 5 -19 35 -7 46 14 14 43 7 43
-11z m276 -54 c-3 -13 -7 -52 -8 -88 l-2 -65 -5 80 c-6 86 -5 95 11 95 6 0 8
-10 4 -22z"/>
<path d="M1966 2485 c-7 -18 2 -18 34 0 l25 14 -26 1 c-15 0 -29 -7 -33 -15z"/>
<path d="M2059 2488 c-11 -8 -11 -9 3 -5 9 3 18 1 20 -5 3 -7 11 -9 24 -3 10
4 30 7 44 6 14 -2 22 0 18 5 -12 11 -93 13 -109 2z"/>
<path d="M2080 2417 c7 -7 88 -12 94 -6 3 3 -18 7 -46 8 -29 1 -50 0 -48 -2z"/>
<path d="M2098 2383 c7 -3 16 -2 19 1 4 3 -2 6 -13 5 -11 0 -14 -3 -6 -6z"/>
<path d="M2033 2363 c9 -2 23 -2 30 0 6 3 -1 5 -18 5 -16 0 -22 -2 -12 -5z"/>
<path d="M2110 2360 c-13 -8 -13 -10 2 -10 9 0 20 5 23 10 8 13 -5 13 -25 0z"/>
<path d="M2088 2333 c7 -3 16 -2 19 1 4 3 -2 6 -13 5 -11 0 -14 -3 -6 -6z"/>
<path d="M1820 2130 c-13 -8 -12 -10 3 -10 9 0 17 5 17 10 0 12 -1 12 -20 0z"/>
<path d="M1641 1869 c-22 -23 -41 -46 -41 -53 1 -31 14 -55 36 -60 13 -4 24
-11 24 -16 0 -6 5 -10 10 -10 6 0 10 14 10 30 0 23 -7 35 -32 50 -29 18 -30
20 -10 20 12 0 22 6 22 14 0 31 20 25 37 -10 22 -44 39 -42 36 5 -3 32 -26 71
-43 71 -4 0 -26 -19 -49 -41z"/>
<path d="M1870 1890 l-55 -7 63 -1 c40 -1 61 2 57 8 -3 6 -7 9 -8 8 -1 -1 -27
-4 -57 -8z"/>
<path d="M1748 1868 c3 -12 7 -17 10 -10 2 6 10 12 17 12 8 0 17 5 20 10 4 6
-6 10 -23 10 -26 0 -29 -3 -24 -22z"/>
<path d="M2018 1833 c-21 -2 -38 -9 -38 -15 0 -6 12 -8 31 -4 17 3 38 6 45 6
8 0 14 5 14 10 0 6 -3 9 -7 8 -5 -1 -25 -3 -45 -5z"/>
<path d="M2085 1830 c3 -5 12 -7 20 -3 21 7 19 13 -6 13 -11 0 -18 -4 -14 -10z"/>
<path d="M1186 1805 c3 -11 6 -28 6 -37 0 -9 10 -24 24 -33 26 -17 33 -5 9 15
-8 7 -15 18 -15 24 0 7 -7 21 -16 32 -15 19 -16 19 -8 -1z"/>
<path d="M1610 1730 c0 -5 5 -10 11 -10 5 0 7 5 4 10 -3 6 -8 10 -11 10 -2 0
-4 -4 -4 -10z"/>
<path d="M1741 1724 c0 -11 3 -14 6 -6 3 7 2 16 -1 19 -3 4 -6 -2 -5 -13z"/>
<path d="M1741 1634 c0 -11 3 -14 6 -6 3 7 2 16 -1 19 -3 4 -6 -2 -5 -13z"/>
<path d="M2663 2119 c-6 -14 -13 -46 -14 -70 -3 -39 -1 -44 18 -47 18 -3 24 4
32 35 14 51 14 63 -3 63 -8 0 -16 10 -19 23 -3 22 -4 22 -14 -4z"/>
<path d="M1170 360 c0 -5 7 -10 16 -10 8 0 12 5 9 10 -3 6 -10 10 -16 10 -5 0
-9 -4 -9 -10z"/>
<path d="M0 2430 c0 -12 45 -24 65 -16 29 11 15 26 -25 26 -22 0 -40 -4 -40
-10z"/>
<path d="M13 2393 c9 -2 23 -2 30 0 6 3 -1 5 -18 5 -17 0 -22 -2 -12 -5z"/>
<path d="M353 2313 c20 -2 54 -2 75 0 20 2 3 4 -38 4 -41 0 -58 -2 -37 -4z"/>
<path d="M260 2276 c0 -14 5 -28 10 -31 6 -3 10 5 10 19 0 14 -4 28 -10 31 -6
3 -10 -5 -10 -19z"/>
<path d="M43 1872 c-24 -2 -43 -5 -43 -6 0 -2 6 -15 13 -29 10 -19 17 -23 30
-16 26 15 57 -10 57 -46 0 -16 7 -39 15 -49 13 -17 15 -17 21 -3 3 9 2 44 -3
78 -9 70 -18 76 -90 71z"/>
<path d="M147 1863 c-4 -7 11 -144 16 -150 2 -1 36 -5 77 -10 73 -8 94 -23 48
-33 -16 -4 -24 -14 -26 -32 -2 -19 -8 -25 -20 -21 -10 2 -28 0 -42 -6 -22 -9
-19 -10 23 -10 35 -1 47 -5 47 -16 0 -13 16 -15 100 -13 54 1 102 -1 106 -5 4
-4 -43 -7 -104 -7 -61 0 -113 -4 -116 -9 -10 -15 23 -21 77 -15 109 11 146 10
152 -5 3 -8 1 -18 -6 -21 -8 -6 -8 -10 2 -16 7 -4 14 -3 16 3 2 6 14 9 26 7
12 -2 16 -2 10 2 -15 7 -17 34 -3 34 13 0 11 85 -3 220 l-12 105 -181 3 c-100
2 -184 0 -187 -5z m363 -34 c0 -5 -21 -9 -47 -8 -34 0 -42 3 -28 8 28 11 75
11 75 0z m-147 -6 c-7 -2 -21 -2 -30 0 -10 3 -4 5 12 5 17 0 24 -2 18 -5z
m111 -54 c-3 -5 -10 -7 -15 -3 -5 3 -7 10 -3 15 3 5 10 7 15 3 5 -3 7 -10 3
-15z m-228 -56 c-2 -3 -10 -2 -16 2 -9 6 -9 10 1 16 11 7 11 9 -1 9 -13 0 -13
1 0 10 11 7 16 5 18 -11 2 -11 1 -23 -2 -26z m79 17 c-3 -5 -10 -10 -16 -10
-5 0 -9 5 -9 10 0 6 7 10 16 10 8 0 12 -4 9 -10z m185 -196 c0 -8 -5 -12 -10
-9 -6 4 -8 11 -5 16 9 14 15 11 15 -7z"/>
<path d="M150 1681 c0 -6 4 -13 10 -16 6 -3 7 1 4 9 -7 18 -14 21 -14 7z"/>
<path d="M40 1648 c0 -22 4 -26 25 -23 17 1 25 -3 25 -13 0 -8 2 -13 5 -10 4
3 3 17 0 31 -5 18 -12 24 -22 20 -8 -3 -19 0 -24 8 -6 10 -9 7 -9 -13z"/>
<path d="M110 1614 c0 -3 7 -12 15 -20 13 -13 15 -13 15 -1 0 8 -7 17 -15 21
-8 3 -15 3 -15 0z"/>
<path d="M161 1604 c0 -11 3 -14 6 -6 3 7 2 16 -1 19 -3 4 -6 -2 -5 -13z"/>
<path d="M131 1554 c0 -11 3 -14 6 -6 3 7 2 16 -1 19 -3 4 -6 -2 -5 -13z"/>
<path d="M494 1449 c-34 -10 -67 -39 -43 -39 10 0 10 -3 1 -12 -9 -9 -17 -7
-33 8 -22 19 -22 19 -8 -3 9 -15 24 -23 42 -23 26 0 28 3 23 25 -4 14 -2 25 4
25 5 0 10 -11 10 -25 0 -26 15 -34 23 -12 4 10 6 10 6 0 1 -7 5 -13 11 -13 10
0 11 69 1 74 -3 2 -20 -1 -37 -5z"/>
<path d="M785 1410 c-3 -5 3 -10 15 -10 12 0 18 5 15 10 -3 6 -10 10 -15 10
-5 0 -12 -4 -15 -10z"/>
<path d="M755 1399 c-4 -6 -5 -12 -2 -15 2 -3 7 2 10 11 7 17 1 20 -8 4z"/>
<path d="M183 1320 c0 -25 2 -35 4 -22 2 12 2 32 0 45 -2 12 -4 2 -4 -23z"/>
<path d="M877 1283 c9 -3 10 -10 4 -22 -6 -11 -6 -22 1 -32 8 -11 9 -11 4 4
-3 9 -1 17 4 17 6 0 10 -4 10 -10 0 -5 4 -10 9 -10 5 0 3 14 -5 30 -9 17 -21
30 -27 29 -9 0 -8 -2 0 -6z"/>
<path d="M771 1244 c0 -11 3 -14 6 -6 3 7 2 16 -1 19 -3 4 -6 -2 -5 -13z"/>
<path d="M510 1143 c0 -10 5 -25 10 -33 7 -11 10 -7 10 18 0 17 -4 32 -10 32
-5 0 -10 -8 -10 -17z"/>
<path d="M317 1143 c-2 -5 4 -16 14 -25 18 -17 19 -17 29 2 5 10 10 21 10 24
0 9 -48 7 -53 -1z"/>
<path d="M425 1090 c3 -5 11 -10 16 -10 6 0 7 5 4 10 -3 6 -11 10 -16 10 -6 0
-7 -4 -4 -10z"/>
<path d="M438 1053 c7 -3 16 -2 19 1 4 3 -2 6 -13 5 -11 0 -14 -3 -6 -6z"/>
<path d="M338 998 c4 -57 17 -82 28 -55 9 25 -5 107 -19 107 -8 0 -11 -17 -9
-52z"/>
<path d="M438 1000 c6 -40 32 -40 29 0 -1 20 -7 30 -18 30 -12 0 -14 -7 -11
-30z"/>
<path d="M345 680 c3 -5 8 -10 11 -10 2 0 4 5 4 10 0 6 -5 10 -11 10 -5 0 -7
-4 -4 -10z"/>
</g>
</svg>
